PathFileType	4	(X/Y/Z)	C:\Users\WrightLab\Desktop\Jo\P4V130.trc
DataRate	CameraRate	NumFrames	NumMarkers	Units	OrigDataRate	OrigDataStartFrame	OrigNumFrames
100.00	100.00	       42	19	mm	100.00	85	       672
Frame#	Time	Headset_Front			Headset_Back			Headset_Left			Headset_Right			Left_Shoulder			Right_Shoulder			Sternum			C7			Left Elbow			Right Elbow			Left Wrist			Right Wrist			Left ASIS			Right ASIS			S2			Left Knee			Right Knee			Left Ankle			Right Ankle			
		X1	Y1	Z1	X2	Y2	Z2	X3	Y3	Z3	X4	Y4	Z4	X5	Y5	Z5	X6	Y6	Z6	X7	Y7	Z7	X8	Y8	Z8	X9	Y9	Z9	X10	Y10	Z10	X11	Y11	Z11	X12	Y12	Z12	X13	Y13	Z13	X14	Y14	Z14	X15	Y15	Z15	X16	Y16	Z16	X17	Y17	Z17	X18	Y18	Z18	X19	Y19	Z19	

85	0.840																															116.51428	892.66461	-1345.82825													76.47199	510.45111	-1478.40808										
86	0.850																															123.89874	889.29504	-1341.22229													76.52190	510.83698	-1474.60876										
87	0.860																															133.99487	881.76355	-1353.70874													76.84332	510.89688	-1472.04370										
88	0.870																															143.25771	877.00690	-1356.94189													77.06638	511.55780	-1469.93713										
89	0.880																															151.96475	872.90405	-1363.18921													77.16673	511.81927	-1468.98535										
90	0.890																															161.41360	868.66821	-1368.55859													77.28844	512.14478	-1467.83191										
91	0.900																															168.98260	865.68903	-1375.92126													77.04389	512.15234	-1465.88770										
92	0.910																															177.80663	862.86127	-1382.39636													77.12318	512.35779	-1465.13623										
93	0.920																															185.41827	860.66815	-1388.27271													77.17977	512.49268	-1464.59839										
94	0.930																															192.05986	859.07959	-1395.17322													77.20569	512.54236	-1464.35071										
95	0.940																															199.48611	857.71088	-1399.44238													77.22237	512.54272	-1464.18762										
96	0.950																															206.24588	857.47955	-1407.29663													77.63791	511.52881	-1465.23938										
97	0.960																															212.41916	857.15833	-1412.07996													77.63297	511.46252	-1465.28027										
98	0.970																															218.01170	858.03235	-1418.77075	-344.43167	884.48962	-1363.19910										77.63734	511.43628	-1465.23462										
99	0.980																															222.22592	858.73718	-1424.61523	-345.17026	885.46545	-1360.19080										77.07329	511.41653	-1463.59302										
100	0.990																															227.71793	858.10382	-1426.72461	-345.13739	885.57208	-1360.01282										77.04420	511.21817	-1463.85498										
101	1.000																															231.86473	860.47156	-1433.51038	-345.91803	886.49609	-1357.25842										77.03722	511.04935	-1463.90381	-241.52914	522.06366	-1447.73340							
102	1.010																															235.26038	861.21375	-1437.32788	-345.90631	886.60547	-1357.21118										77.04660	510.95404	-1463.80078	-242.55669	523.73804	-1444.61194							
103	1.020																															240.28343	860.93652	-1446.90295	-347.70984	889.13806	-1346.47437										77.04560	510.78683	-1463.79053	-243.00276	524.65137	-1443.69360							
104	1.030																															243.28000	863.32709	-1443.13782	-348.13687	890.87305	-1346.21680										77.22494	509.96414	-1464.03174	-243.69167	524.08862	-1443.33826							
105	1.040																															245.90952	864.49274	-1445.68091	-348.91367	891.05670	-1346.70850										77.95683	508.94348	-1465.67981	-244.58792	524.17871	-1442.14600							
106	1.050																															248.38103	866.59827	-1449.35046	-349.49884	892.40521	-1342.38745										78.01853	509.06241	-1465.08923	-246.05414	524.31500	-1440.67627							
107	1.060																															250.93549	867.49878	-1451.02966	-349.25989	893.42889	-1341.01135										78.08578	509.16684	-1464.44238	-246.29817	523.53741	-1442.18274							
108	1.070																															252.99628	868.01331	-1451.01367	-350.19919	894.55383	-1339.86328										78.14606	509.19785	-1463.85486	-247.17612	522.77606	-1442.26794							
109	1.080																															255.73697	868.66687	-1451.02344	-350.95410	895.16034	-1338.28467										78.17759	509.14798	-1463.53906	-249.06097	523.46722	-1437.24768							
110	1.090																															257.48788	869.57178	-1451.64661	-351.09921	895.54053	-1337.30884										78.19045	509.08569	-1463.40479	-249.22778	522.41211	-1437.02454							
111	1.100																															258.32822	870.92578	-1452.85059	-352.52975	896.30664	-1336.45532										77.96774	508.32422	-1462.84424	-250.77370	523.80786	-1431.31958							
112	1.110																															259.40729	871.20020	-1452.34924	-353.25089	896.84723	-1335.45215										77.94342	508.14386	-1463.06055	-251.74408	523.39288	-1428.29883							
113	1.120																															260.27588	871.25891	-1451.26501	-353.83795	897.53003	-1334.85730										77.07906	508.54681	-1460.55640	-254.09601	525.87292	-1420.88708							
114	1.130																															260.78281	871.41705	-1449.94348	-354.93842	897.73694	-1334.15759										77.12454	507.74084	-1460.59216	-255.54366	526.04767	-1417.79578							
115	1.140																															261.78036	871.23102	-1448.34119	-355.96396	897.91272	-1334.33972										77.14051	507.80591	-1460.44360	-256.95520	526.17230	-1415.99890							
116	1.150																															261.93018	870.14191	-1445.04480	-356.36575	898.03680	-1334.43481										77.15044	507.84296	-1460.35083	-258.92456	526.29614	-1410.43591							
117	1.160																															261.06573	870.08850	-1443.49219	-356.88510	897.99438	-1334.33862										77.15809	507.85297	-1460.27722	-260.53262	527.60541	-1405.26416							
118	1.170																															260.35013	869.23126	-1440.33362	-357.69720	898.27722	-1334.35828										77.19398	507.95840	-1459.93860	-262.29977	530.06305	-1399.29639							
119	1.180																															259.44818	869.04187	-1438.02808	-359.35358	897.16638	-1334.78699										78.01897	507.60236	-1461.88281	-263.27499	530.23798	-1396.13867							
120	1.190																															258.04971	868.09552	-1434.79272	-359.82742	896.29755	-1335.46301										78.07525	507.83691	-1461.35913	-265.08502	531.28015	-1390.90857							
121	1.200																															256.06406	867.09796	-1431.52649	-360.16959	895.65302	-1336.46167										78.11860	507.99789	-1460.95337	-267.39661	534.89136	-1381.53174							
122	1.210																															253.10678	866.27637	-1427.56677	-361.49670	894.79431	-1337.97229										78.10761	508.03372	-1461.06519	-270.42029	535.72314	-1378.05896							
123	1.220																															250.55177	864.55402	-1422.36340	-362.76447	894.03680	-1338.33789										78.12538	508.11417	-1460.90051	-273.77417	538.54114	-1373.31909							
124	1.230																															247.15764	864.35046	-1418.67163	-364.62805	893.05475	-1340.13953										78.15646	508.90305	-1461.06360	-276.47391	539.34460	-1369.45459							
125	1.240																															243.70163	863.56512	-1413.68396	-366.70184	892.39417	-1342.14612										78.12749	508.15286	-1460.88428	-280.02585	541.42902	-1365.18176							
126	1.250																															239.88446	861.54474	-1406.29321	-367.94864	891.86310	-1343.26440										78.13383	508.17114	-1460.82434	-281.72903	542.58478	-1361.03674							
